<svg xmlns="http://www.w3.org/2000/svg" version="1.1" xmlns:xlink="http://www.w3.org/1999/xlink" xmlns:svgjs="http://svgjs.dev/svgjs" viewBox="0 0 800 800" opacity="0.58"><defs><linearGradient x1="50%" y1="0%" x2="50%" y2="100%" id="gggyrate-grad"><stop stop-color="hsl(265, 55%, 30%)" stop-opacity="1" offset="0%"></stop><stop stop-color="hsl(265, 55%, 60%)" stop-opacity="1" offset="100%"></stop></linearGradient></defs><g stroke-width="1" stroke="url(#gggyrate-grad)" fill="none"><path d="M360.51675572032434 -270.6056551924941C376.6899927062592 -303.2935458116666 423.3098852234283 -303.2935458116666 439.48312220936316 -270.6056551924941L1083.8740036724605 1031.5299040193297C1098.3621843023534 1060.809134885593 1077.0621908867602 1095.1215079395122 1044.3908204279412 1095.1215079395122H-244.3909424982537C-277.06231295707283 1095.1215079395122 -298.36230637266567 1060.809134885593 -283.8741257427732 1031.5299040193297L360.51675572032434 -270.6056551924941Z " transform="rotate(178.5, 400, 400)" opacity="0.05"></path><path d="M361.29102733667673 -257.45647802458063C377.14714202876974 -289.50342961200465 422.8529190063865 -289.50342961200465 438.7090336984795 -257.45647802458063L1070.464799838771 1019.1470113987762C1084.6688984955288 1047.8521396990345 1063.7865520096532 1081.4917211244453 1031.7557966578697 1081.4917211244453H-231.75573562271353C-263.7864909744969 1081.4917211244453 -284.6688374603723 1047.8521396990345 -270.4647388036149 1019.1470113987762L361.29102733667673 -257.45647802458063Z " transform="rotate(175, 400, 400)" opacity="0.07"></path><path d="M362.06520740029475 -244.30730085666715C377.604199798546 -275.7133134123427 422.39586123661024 -275.7133134123427 437.9348536348615 -244.30730085666715L1057.0555044523471 1006.7641187782224C1070.9755211359698 1034.8951445124758 1050.5108215798116 1067.8619343093783 1019.1206813350639 1067.8619343093783H-219.12062029990767C-250.51076054465545 1067.8619343093783 -270.9754601008133 1034.8951445124758 -257.05544341719104 1006.7641187782224L362.06520740029475 -244.30730085666715Z " transform="rotate(171.5, 400, 400)" opacity="0.09"></path><path d="M362.839417981491 -231.15824575906612C378.0612880859003 -261.92331928299325 421.9388339844122 -261.92331928299325 437.1607040888215 -231.15824575906612L1043.6462395835013 994.3811040873561C1057.282174293989 1021.9380272556043 1037.2351216675484 1054.2320254239987 1006.4855965298361 1054.2320254239987H-206.48547445952374C-237.2349995972358 1054.2320254239987 -257.28205222367615 1021.9380272556043 -243.6461175131891 994.3811040873561L362.839417981491 -231.15824575906612Z " transform="rotate(168, 400, 400)" opacity="0.11"></path><path d="M363.61350649237465 -218.00906859115264C378.51825430294207 -248.13320308333127 421.4816846619017 -248.13320308333127 436.3864324724691 -218.00906859115264L1030.2368526443431 981.9982114668026C1043.5887053816955 1008.9810320690453 1023.9592996849724 1040.6022386089317 993.8503896542961 1040.6022386089317H-193.85045068945226C-223.9593607201287 1040.6022386089317 -243.5887664168515 1008.9810320690453 -230.2369136794996 981.9982114668026L363.61350649237465 -218.00906859115264Z " transform="rotate(164.5, 400, 400)" opacity="0.13"></path><path d="M364.38765603841443 -204.86001349355166C378.9752815551401 -234.3432089539818 421.0245963745474 -234.3432089539818 435.61222189127307 -204.86001349355166L1016.827526740341 969.6151967759365C1029.8952975045584 996.0239148121741 1010.6835387375529 1026.972329723552 981.2152438139121 1026.972329723552H-181.21536588422458C-210.6836608078653 1026.972329723552 -229.89541957487063 996.0239148121741 -216.82764881065384 969.6151967759365L364.38765603841443 -204.86001349355166Z " transform="rotate(161, 400, 400)" opacity="0.15"></path><path d="M365.1618666196106 -191.71083632563818C379.4323698424944 -220.55309275431983 420.56756912234937 -220.55309275431983 434.8380723452332 -191.71083632563818L1003.4182618714954 957.2323041553827C1016.2019506625775 983.0669196256154 997.4078388252894 1013.342542908485 968.5801590086844 1013.342542908485H-168.5802200438406C-197.4078998604457 1013.342542908485 -216.2020116977335 983.0669196256154 -203.41832290665184 957.2323041553827L365.1618666196106 -191.71083632563818Z " transform="rotate(157.5, 400, 400)" opacity="0.16"></path><path d="M365.9360466832286 -178.5616591577247C379.88942761227054 -206.76297655465785 420.1105113525732 -206.76297655465785 434.06389228161515 -178.5616591577247L990.0089664850714 944.849411534829C1002.5085733030185 970.1099244390564 984.1321083954481 999.712756093418 955.9450436858785 999.712756093418H-155.9451047210348C-184.13216943060416 999.712756093418 -202.5086343381745 970.1099244390564 -190.00902752022802 944.849411534829L365.9360466832286 -178.5616591577247Z " transform="rotate(154, 400, 400)" opacity="0.18"></path><path d="M366.7102267468466 -165.4126040601237C380.3464853820467 -192.9729824253084 419.65345358279706 -192.9729824253084 433.28971221799713 -165.4126040601237L976.5996710986476 932.4663968439629C988.8151959434595 957.1528071821854 970.8563779656065 986.0828472080386 943.3099283630727 986.0828472080386H-143.30998939822894C-170.8564390007627 986.0828472080386 -188.81525697861548 957.1528071821854 -176.59973213380414 932.4663968439629L366.7102267468466 -165.4126040601237Z " transform="rotate(150.5, 400, 400)" opacity="0.20"></path><path d="M367.48440681046463 -152.26342689221022C380.80354315182285 -179.18286622564642 419.1963958130209 -179.18286622564642 432.5155321543791 -152.26342689221022L963.1903757122236 920.0835042234096C975.1218185839004 944.1958119956264 957.5806475357649 972.4530603929716 930.674813040267 972.4530603929716H-130.67487407542308C-157.58070857092116 972.4530603929716 -175.12187961905647 944.1958119956264 -163.19043674738026 920.0835042234096L367.48440681046463 -152.26342689221022Z " transform="rotate(147, 400, 400)" opacity="0.22"></path><path d="M368.25858687408277 -139.11437179460924C381.260600921599 -165.39287209629697 418.73933804324474 -165.39287209629697 431.7413520907611 -139.11437179460924L949.7810803257998 907.7004895325433C961.4284412243414 931.2386947387552 944.3049171059236 958.823151507592 918.039697717461 958.823151507592H-118.03975875261727C-144.3049781410797 958.823151507592 -161.42850225949746 931.2386947387552 -149.78114136095644 907.7004895325433L368.25858687408277 -139.11437179460924Z " transform="rotate(143.5, 400, 400)" opacity="0.24"></path><path d="M369.03276693770067 -125.96519462669573C381.7176586913753 -151.602755896635 418.2822802734686 -151.602755896635 430.96717202714296 -125.96519462669573L936.3717849393759 895.3175969119895C947.7350638647824 918.2816995521962 931.0291866760817 945.1933646925249 905.4045823946553 945.1933646925249H-105.40464342981141C-131.0292477112382 945.1933646925249 -147.73512489993846 918.2816995521962 -136.37184597453256 895.3175969119895L369.03276693770067 -125.96519462669573Z " transform="rotate(140, 400, 400)" opacity="0.26"></path><path d="M369.8069470013188 -112.81601745878226C382.17471646115143 -137.812639696973 417.82522250369243 -137.812639696973 430.19299196352495 -112.81601745878226L922.9624895529521 882.9347042914358C934.0416865052234 905.3247043656374 917.7534562462404 931.5635778774579 892.7694670718492 931.5635778774579H-92.76952810700561C-117.75351728139668 931.5635778774579 -134.04174754037945 905.3247043656374 -122.96255058810868 882.9347042914358L369.8069470013188 -112.81601745878226Z " transform="rotate(136.5, 400, 400)" opacity="0.28"></path><path d="M370.5811270649368 -99.66696236118128C382.6317742309276 -124.02264556762356 417.36816473391616 -124.02264556762356 429.4188118999069 -99.66696236118128L909.5531941665283 870.5516896005697C920.3483091456644 892.3675871087662 904.477725816399 917.9336689920783 880.1343517490436 917.9336689920783H-80.13441278419975C-104.47778685155521 917.9336689920783 -120.34837018082044 892.3675871087662 -109.55325520168486 870.5516896005697L370.5811270649368 -99.66696236118128Z " transform="rotate(133, 400, 400)" opacity="0.30"></path><path d="M371.35530712855484 -86.51780045205686C383.08883200070375 -110.23254462675064 416.91110696414 -110.23254462675064 428.6446318362889 -86.51780045205686L896.1438987801043 858.1687817212269C906.6549317861054 879.4105766634184 891.2019953865574 904.3038669182224 867.4992364262375 904.3038669182224H-67.49929746139395C-91.20205642171368 904.3038669182224 -106.65499282126143 879.4105766634184 -96.14395981526098 858.1687817212269L371.35530712855484 -86.51780045205686Z " transform="rotate(129.5, 400, 400)" opacity="0.32"></path><path d="M372.12948719217286 -73.3686843192996C383.5458897704799 -96.44248946224494 416.45404919436385 -96.44248946224494 427.8704517726709 -73.3686843192996L882.7346033936806 845.7858280655173C892.9615544265462 866.4535204417032 877.9262649567158 890.6740190679989 854.8641211034319 890.6740190679989H-54.86418213858809C-77.9263259918722 890.6740190679989 -92.96161546170242 866.4535204417032 -82.7346644288371 845.7858280655173L372.12948719217286 -73.3686843192996Z " transform="rotate(126, 400, 400)" opacity="0.33"></path><path d="M372.9036672557909 -60.219507151386125C384.0029475402562 -82.65237326258296 415.9969914245876 -82.65237326258296 427.09627170905287 -60.219507151386125L869.3253080072568 833.4029354449635C879.2681770669874 853.4965252551444 864.6505345268743 877.044232252932 842.229005780626 877.044232252932H-42.22906681578229C-64.65059556203067 877.044232252932 -79.26823810214341 853.4965252551444 -69.32536904241323 833.4029354449635L372.9036672557909 -60.219507151386125Z " transform="rotate(122.5, 400, 400)" opacity="0.35"></path><path d="M373.677847319409 -47.07039101862887C384.46000531003233 -68.86231809807725 415.5399336548114 -68.86231809807725 426.32209164543474 -47.07039101862887L855.916012620833 821.0199817892535C865.5747997074282 840.5394690334292 851.3748040970329 863.4143844027087 829.5938904578202 863.4143844027087H-29.59395149297643C-51.3748651321892 863.4143844027087 -65.5748607425844 840.5394690334292 -55.91607365598941 821.0199817892535L373.677847319409 -47.07039101862887Z " transform="rotate(119, 400, 400)" opacity="0.37"></path><path d="M374.4520273830269 -33.92127488587164C384.9170630798085 -55.07226293357152 415.08287588503526 -55.07226293357152 425.54791158181683 -33.92127488587164L842.5067172344093 808.6370281335437C851.8814223478694 827.5824128117142 838.0990736671915 849.7845365524854 816.9587751350143 849.7845365524854H-16.958836170170628C-38.09913470234767 849.7845365524854 -51.8814833830254 827.5824128117142 -42.50677826956553 808.6370281335437L374.4520273830269 -33.92127488587164Z " transform="rotate(115.5, 400, 400)" opacity="0.39"></path><path d="M375.22620744664493 -20.77215875311441C385.37412084958464 -41.28220776906579 414.6258181152591 -41.28220776906579 424.7737315181988 -20.77215875311441L829.0974218479853 796.2540744778339C838.1880449883104 814.6253565899992 824.82334323735 836.1546887022621 804.3236598122085 836.1546887022621H-4.323720847364768C-24.823404272506195 836.1546887022621 -38.18810602346639 814.6253565899992 -29.09748288314165 796.2540744778339L375.22620744664493 -20.77215875311441Z " transform="rotate(112, 400, 400)" opacity="0.41"></path><path d="M376.00038751026295 -7.623057879146245C385.8311786193608 -27.492167863349152 414.16876034548295 -27.492167863349152 423.9995514545808 -7.623057879146245L815.6881264615613 783.8711055633348C824.4946676287514 801.6682851094952 811.5476128075084 822.5248255932497 791.6885444894026 822.5248255932497H8.311394475441034C-11.547673842664665 822.5248255932497 -24.49472866390738 801.6682851094952 -15.68818749671783 783.8711055633348L376.00038751026295 -7.623057879146245Z " transform="rotate(108.5, 400, 400)" opacity="0.43"></path><path d="M376.77462860903734 5.526119288767262C386.2882974242932 -13.702051663687172 413.71176361086304 -13.702051663687172 423.2254324261189 5.526119288767262L802.2788921102938 771.4882129427813C810.8013513043486 788.7112899229364 798.271943412823 808.8950387781829 779.053490201753 808.8950387781829H20.946570833403143C1.728117622333059 808.8950387781829 -10.801290269192123 788.7112899229364 -2.2788310751377026 771.4882129427813L376.77462860903734 5.526119288767262Z " transform="rotate(105, 400, 400)" opacity="0.45"></path><path d="M377.54880867265524 18.67523542152449C386.74535519406936 0.08800350081853026 413.2547058410869 0.08800350081853026 422.451252362501 18.67523542152449L788.86959672387 759.1052592870712C797.1079739447896 775.7542337012211 784.9962129829817 795.2651909279593 766.4183748789474 795.2651909279593H33.581686156209C15.00384805217459 795.2651909279593 2.8920870903668856 775.7542337012211 11.130464311286175 759.1052592870712L377.54880867265524 18.67523542152449Z " transform="rotate(101.5, 400, 400)" opacity="0.47"></path><path d="M378.3229277011171 31.82435155428172C387.20235192868927 13.87805866532426 412.7975870361545 13.87805866532426 421.6770112637266 31.82435155428172L775.4602403022898 746.7223056313615C783.4145355500743 762.7971774795062 771.720421517984 781.6353430777363 753.7831985209851 781.6353430777363H46.216740443858555C28.279517446859813 781.6353430777363 16.585403414769644 762.7971774795062 24.539698662553747 746.7223056313615L378.3229277011171 31.82435155428172Z " transform="rotate(98, 400, 400)" opacity="0.49"></path><path d="M379.09710776473514 44.97348294582804C387.6594096984654 27.668129088619025 412.3405292663783 27.668129088619025 420.9028312001086 44.97348294582804L762.050944915866 734.3393672344406C769.7211581905152 749.8401365165801 758.4446910881425 768.005510486302 741.1480831981793 768.005510486302H58.851855766664414C41.555247876701344 768.005510486302 30.278780774328652 749.8401365165801 37.948994048977625 734.3393672344406L379.09710776473514 44.97348294582804Z " transform="rotate(94.5, 400, 400)" opacity="0.51"></path><path d="M379.87128782835316 58.12262959616339C388.1164674682416 41.45821477070288 411.88347149660217 41.45821477070288 420.1286511364906 58.12262959616339L748.6416495294421 721.9564440963088C756.0277808309563 736.8831108124432 745.168960658301 754.3756931536568 728.5129678753735 754.3756931536568H71.48697108947022C54.83097830654282 754.3756931536568 43.97215813388766 736.8831108124432 51.3582894354015 721.9564440963088L379.87128782835316 58.12262959616339Z " transform="rotate(91, 400, 400)" opacity="0.53"></path><path d="M380.64552892712743 71.27176098770968C388.573586273174 55.248285193997674 411.42647476198226 55.248285193997674 419.3545321080288 71.27176098770968L735.2324151781745 709.5735056993881C742.3344645065534 723.9260698495173 731.8932912636157 740.7458605622227 715.8779135877239 740.7458605622227H84.12214744743233C68.1067697715406 740.7458605622227 57.66559652860292 723.9260698495173 64.76764585698163 709.5735056993881L380.64552892712743 71.27176098770968Z " transform="rotate(87.5, 400, 400)" opacity="0.54"></path><path d="M381.41970899074545 84.42087712046694C389.03064404295014 69.03834035850338 410.9694169922061 69.03834035850338 418.5803520444108 84.42087712046694L721.8231197917506 697.190552043678C728.6410871469946 710.9690136278022 718.6175608337742 727.1160127119994 703.2427982649181 727.1160127119994H96.75726277023813C81.38250020138207 727.1160127119994 71.35897388816193 710.9690136278022 78.17694124340545 697.190552043678L381.41970899074545 84.42087712046694Z " transform="rotate(84, 400, 400)" opacity="0.56"></path><path d="M382.19385853678534 97.56999325322417C389.4876712951482 82.8283955230091 410.5123287048518 82.8283955230091 417.80614146321466 97.56999325322417L708.4137938877486 684.8075983879683C714.9476792698573 698.011957406087 705.3417998863546 713.486164861776 690.6076524245342 713.486164861776H109.39234757546586C94.65820011364548 713.486164861776 85.05232073014281 698.011957406087 91.5862061122512 684.8075983879683L382.19385853678534 97.56999325322417Z " transform="rotate(80.5, 400, 400)" opacity="0.58"></path><path d="M382.96800808282524 110.71917042113765C389.9446985473462 96.61851172267106 410.05524041749754 96.61851172267106 417.0319308820185 110.71917042113765L695.0044679837466 672.4247057674145C701.2542713927202 685.0549622195282 692.066038938935 699.856378046709 677.9725065841502 699.856378046709H122.02743238069354C107.93390002590883 699.856378046709 98.7456675721237 685.0549622195282 104.99547098109696 672.4247057674145L382.96800808282524 110.71917042113765Z " transform="rotate(77, 400, 400)" opacity="0.60"></path><path d="M383.7422186640214 123.8682865538949C390.4017868347005 110.40856688717679 409.5982131652995 110.40856688717679 416.2577813359786 123.8682865538949L681.5952031149009 660.0417521117048C687.5609245507393 672.0979059978132 678.7903390266715 686.2265301964858 665.3374217789226 686.2265301964858H134.66257822107752C121.20966097332848 686.2265301964858 112.43907544926083 672.0979059978132 118.4047968850989 660.0417521117048L383.7422186640214 123.8682865538949Z " transform="rotate(73.5, 400, 400)" opacity="0.62"></path><path d="M384.5163987276394 137.01740268665213C390.85884460447664 124.19862205168249 409.14115539552336 124.19862205168249 415.4836012723606 137.01740268665213L668.185907728477 647.6587984559948C673.8675471911803 659.1408497760981 665.5146085968299 672.5966823462625 652.7023064561167 672.5966823462625H147.29769354388333C134.48539140316996 672.5966823462625 126.13245280881983 659.1408497760981 131.81409227152278 647.6587984559948L384.5163987276394 137.01740268665213Z " transform="rotate(70, 400, 400)" opacity="0.64"></path><path d="M385.2905482736794 150.16651881940936C391.3158718566747 137.98867721618822 408.6840671081691 137.98867721618822 414.70939069116434 150.16651881940936L654.7765818244751 635.2758448002849C660.1741393140431 646.1837935543831 652.2388476494104 658.9668344960392 640.0671606157327 658.9668344960392H159.93277834911106C147.76109131543336 658.9668344960392 139.82579965080072 646.1837935543831 145.22335714036853 635.2758448002849L385.2905482736794 150.16651881940936Z " transform="rotate(66.5, 400, 400)" opacity="0.66"></path><path d="M386.0647588548755 163.31565021095565C391.772960144029 151.77874763948302 408.22703985597104 151.77874763948302 413.93524114512456 163.31565021095565L641.3673169556293 622.8929064033641C646.4807924720621 633.2267525914571 638.963147737147 645.3370019046049 627.432075810505 645.3370019046049H172.567924189495C161.03685226285296 645.3370019046049 153.51920752793785 633.2267525914571 158.63268304437048 622.8929064033641L386.0647588548755 163.31565021095565Z " transform="rotate(63, 400, 400)" opacity="0.68"></path><path d="M386.8389236597045 176.46479686129103C392.23000265501616 165.56883332156684 407.7699668274057 165.56883332156684 413.16104582271737 176.46479686129103L627.9580063104165 610.5099832652322C632.7873998537141 620.2697268873201 625.6874020485164 631.7071845719598 614.7969452289101 631.7071845719598H185.20302425351178C174.31256743390543 631.7071845719598 167.2125696287078 620.2697268873201 172.0419631720053 610.5099832652322L386.8389236597045 176.46479686129103Z " transform="rotate(59.5, 400, 400)" opacity="0.70"></path><path d="M387.61311898211153 189.61391299404826C392.6870756835814 179.35888848607257 407.3129243164186 179.35888848607257 412.38688101788847 189.61391299404826L614.5487261827817 598.1270296095224C619.0940377529442 607.3126706656051 612.411686877464 618.0773367217365 602.1618451648933 618.0773367217365H197.83815483510665C187.58831312253596 618.0773367217365 180.90596224705587 607.3126706656051 185.45127381721824 598.1270296095224L387.61311898211153 189.61391299404826Z " transform="rotate(56, 400, 400)" opacity="0.71"></path><path d="M388.38732956330773 202.76305964438362C393.14416397093567 193.1489741681564 406.8558970642206 193.1489741681564 411.6127314718485 202.76305964438362L601.139461313936 585.7441064713906C605.4006909109634 594.3556449614682 599.1359869652006 604.4475193890914 589.5267603596656 604.4475193890914H210.47330067549063C200.86407406995562 604.4475193890914 194.599370124193 594.3556449614682 198.86059972122024 585.7441064713906L388.38732956330773 202.76305964438362Z " transform="rotate(52.5, 400, 400)" opacity="0.73"></path><path d="M389.16146385055856 215.91217577714087C393.60117596434463 206.93902933266213 406.39879351807724 206.93902933266213 410.8385056318633 215.91217577714087L587.7301201511449 573.3611528156807C591.7072677750372 581.3985887397531 585.860210758992 590.8176715388681 576.8915992604925 590.8176715388681H223.10837022192925C214.1397587234299 590.8176715388681 208.29270170738482 581.3985887397531 212.26984933127687 573.3611528156807L389.16146385055856 215.91217577714087Z " transform="rotate(49, 400, 400)" opacity="0.75"></path><path d="M389.93565917296564 229.0612919098981C394.05824899290985 220.72908449716786 405.94175100709015 220.72908449716786 410.06434082703436 229.0612919098981L574.3208400235101 560.9781991599708C578.0139056742672 568.441532518038 572.5844955879395 577.1878236886448 564.2564991964758 577.1878236886448H235.74350080352417C227.4155044120605 577.1878236886448 221.9860943257329 568.441532518038 225.6791599764898 560.9781991599708L389.93565917296564 229.0612919098981Z " transform="rotate(45.5, 400, 400)" opacity="0.77"></path><path d="M390.7098239777946 242.21043856023346C394.51529150389695 234.5191701792517 405.4846779785249 234.5191701792517 409.2901455046273 242.21043856023346L560.9115293782972 548.595276021839C564.3205130559192 555.4845068139011 559.308749899309 563.5580063559996 551.6213686148809 563.5580063559996H248.37860086754097C240.6912195831129 563.5580063559996 235.67945642650284 555.4845068139011 239.08844010412463 548.595276021839L390.7098239777946 242.21043856023346Z " transform="rotate(42, 400, 400)" opacity="0.79"></path><path d="M391.4840193002017 255.3595546929907C394.97236453246217 248.30922534375742 405.02763546753783 248.30922534375742 408.5159806997983 255.3595546929907L547.5022492506623 536.2123223661291C550.6271509551491 542.5274505921859 546.0330347282566 549.9281585057763 538.9862685508642 549.9281585057763H261.01373144913583C253.9669652717435 549.9281585057763 249.3728490448509 542.5274505921859 252.4977507493375 536.2123223661291L391.4840193002017 255.3595546929907Z " transform="rotate(38.5, 400, 400)" opacity="0.81"></path><path d="M392.2581993638197 268.50870134332604C395.4294223022383 262.09931102584125 404.5705776977617 262.09931102584125 407.7418006361803 268.50870134332604L534.0929538642386 523.8293992279973C536.9337735955901 529.570424888049 532.757304298415 536.2983411731312 526.3511532280584 536.2983411731312H273.6488467719417C267.242695701585 536.2983411731312 263.0662264044099 529.570424888049 265.9070461357614 523.8293992279973L392.2581993638197 268.50870134332604Z " transform="rotate(35, 400, 400)" opacity="0.83"></path><path d="M393.0323794274377 281.65782510547785C395.8864800720145 275.88937381974154 404.1135199279855 275.88937381974154 406.9676205725623 281.65782510547785L520.6836584778147 511.44645320168206C523.2403962360311 516.6133762957286 519.4815738685735 522.6685009523025 513.7160379052525 522.6685009523025H286.2839620947475C280.5184261314265 522.6685009523025 276.7596037639689 516.6133762957286 279.31634152218527 511.44645320168206L393.0323794274377 281.65782510547785Z " transform="rotate(31.5, 400, 400)" opacity="0.85"></path><path d="M393.80655949105574 294.80695649702415C396.3435378417907 289.6794442430363 403.6564621582093 289.6794442430363 406.19344050894426 294.80695649702415L507.27436309139085 499.0635148047612C509.5470188764721 503.65633533280254 506.205843438732 509.03866836086826 501.08092258244665 509.03866836086826H298.91907741755335C293.794156561268 509.03866836086826 290.45298112352793 503.65633533280254 292.7256369086091 499.0635148047612L393.80655949105574 294.80695649702415Z " transform="rotate(28, 400, 400)" opacity="0.87"></path><path d="M394.5807395546738 307.95608788857044C396.80059561156685 303.46951466633107 403.19940438843315 303.46951466633107 405.4192604453262 307.95608788857044L493.865067704967 486.68057640784036C495.8536415169131 490.69929436987655 492.93011300889054 495.40883576943406 488.4458072596408 495.40883576943406H311.55419274035916C307.0698869911095 495.40883576943406 304.14635848308694 490.69929436987655 306.13493229503297 486.68057640784036L394.5807395546738 307.95608788857044Z " transform="rotate(24.5, 400, 400)" opacity="0.89"></path><path d="M395.35491961829183 321.1052192801167C397.257653381343 317.25958508962583 402.742346618657 317.25958508962583 404.64508038170817 321.1052192801167L480.45577231854315 474.2976380109195C482.1602641573541 477.74225340695057 479.654382579049 481.7790031779998 475.810691936835 481.7790031779998H324.189308063165C320.345617420951 481.7790031779998 317.83973584264595 477.74225340695057 319.54422768145685 474.2976380109195L395.35491961829183 321.1052192801167Z " transform="rotate(21, 400, 400)" opacity="0.91"></path><path d="M396.12909968190985 334.254350671663C397.71471115111916 331.0496555129206 402.28528884888084 331.0496555129206 403.87090031809015 334.254350671663L467.0464769321193 461.91469961399866C468.46688679779504 464.7852124440245 466.3786521492075 468.1491705865656 463.1755766140292 468.1491705865656H336.8244233859708C333.6213478507925 468.1491705865656 331.53311320220496 464.7852124440245 332.9535230678807 461.91469961399866L396.12909968190985 334.254350671663Z " transform="rotate(17.5, 400, 400)" opacity="0.92"></path><path d="M396.90327974552787 347.4034896926039C398.1717689208953 344.83973356560995 401.8282310791047 344.83973356560995 403.09672025447213 347.4034896926039L453.6371815456954 449.5317688464724C454.77350943823603 451.82817911049307 453.102921719366 454.51934562452595 450.5404612912233 454.51934562452595H349.4595387087767C346.897078280634 454.51934562452595 345.22649056176397 451.82817911049307 346.36281845430454 449.5317688464724L396.90327974552787 347.4034896926039Z " transform="rotate(14, 400, 400)" opacity="0.94"></path><path d="M397.67745980914594 360.55260582536107C398.62882669067153 358.62978873011565 401.37117330932847 358.62978873011565 402.32254019085406 360.55260582536107L440.2278861592716 437.1488151907625C441.080132078677 438.871122888778 439.82719128952454 440.88949777430264 437.90534596841746 440.88949777430264H362.0946540315825C360.1728087104755 440.88949777430264 358.919867921323 438.871122888778 359.7721138407284 437.1488151907625L397.67745980914594 360.55260582536107Z " transform="rotate(10.5, 400, 400)" opacity="0.96"></path><path d="M398.45163987276396 373.7017372169074C399.0858844604477 372.41985915341047 400.9141155395523 372.41985915341047 401.54836012723604 373.7017372169074L426.8185907728477 424.76587679384164C427.386754719118 425.914081925852 426.551460859683 427.25966518286845 425.27023064561166 427.25966518286845H374.72976935438834C373.448539140317 427.25966518286845 372.613245280882 425.914081925852 373.1814092271523 424.76587679384164L398.45163987276396 373.7017372169074Z " transform="rotate(7, 400, 400)" opacity="0.98"></path><path d="M399.225819936382 386.8508686084537C399.54294223022384 386.20992957670524 400.45705776977616 386.20992957670524 400.774180063618 386.8508686084537L413.4092953864239 412.38293839692085C413.693377359559 412.957040962926 413.2757304298415 413.6298325914342 412.63511532280586 413.6298325914342H387.36488467719414C386.7242695701585 413.6298325914342 386.306622640441 412.957040962926 386.5907046135761 412.38293839692085L399.225819936382 386.8508686084537Z " transform="rotate(3.5, 400, 400)" opacity="1.00"></path></g></svg>