<svg xmlns="http://www.w3.org/2000/svg" version="1.1" xmlns:xlink="http://www.w3.org/1999/xlink" xmlns:svgjs="http://svgjs.dev/svgjs" width="1500" height="1500" viewBox="0 0 1500 1500"><g transform="matrix(1,0,0,1,0,0)"><svg viewBox="0 0 280 280" data-background-color="#fffafa" preserveAspectRatio="xMidYMid meet" height="1500" width="1500" xmlns="http://www.w3.org/2000/svg" xmlns:xlink="http://www.w3.org/1999/xlink"><g id="tight-bounds" transform="matrix(1,0,0,1,0,0)"><svg viewBox="0 0 280 280" height="280" width="280"><g><svg viewBox="0 0 280 280" height="280" width="280"><g><svg viewBox="0 0 280 280" height="280" width="280"><g id="textblocktransform"><svg viewBox="0 0 280 280" height="280" width="280" id="textblock"><g><svg viewBox="0 0 280 280" height="280" width="280"><g transform="matrix(1,0,0,1,74.00336708925556,74.0041003851768)"><svg viewBox="0 0 131.99326582148888 131.9917992296464" height="131.9917992296464" width="131.99326582148888"><g id="icon-0"><svg xmlns="http://www.w3.org/2000/svg" xmlns:xlink="http://www.w3.org/1999/xlink" version="1.1" x="0" y="0" viewBox="5 5 90 89.999" style="enable-background:new 0 0 100 100;" xml:space="preserve" height="131.9917992296464" width="131.99326582148888" class="icon-jxe-0" data-fill-palette-color="accent" id="jxe-0"><path d="M89.835 12.734C85.181 17.767 76.014 27.398 75.273 38.567 75.825 25.476 83.746 14.503 88.841 10.566 88.262 9.562 87.671 9 87.088 9 85.42 9 82.008 11.643 78.691 16.042 70.875 9.17 60.676 5 49.505 5 24.926 5 5 25.147 5 50S24.926 94.999 49.505 94.999C66.676 94.999 81.567 85.16 88.989 70.759 92.782 69.699 95 64.796 95 50 95 37.001 92.643 20.116 89.835 12.734M56 53A2 2 0 1 1 55.999 57.001 2 2 0 0 1 56 53M19 53A2 2 0 1 1 18.999 57.001 2 2 0 0 1 19 53M88.077 58C84.121 72 10.933 66 7.967 61 6.528 58.574 5 51 5.989 51 6.26 51 9.36 51.375 14.128 51.775 12.984 55.604 16.537 60.352 22.264 62.523 28.146 64.752 34.079 63.415 35.517 59.535 36.316 57.377 35.553 54.889 33.708 52.721 40.217 52.777 47.12 52.535 53.535 51.729 51.062 54.056 49.905 56.936 50.789 59.41 52.183 63.306 58.1 64.714 64.008 62.555S73.575 55.488 72.183 51.592C71.629 50.044 70.353 48.896 68.656 48.202 87.002 41.85 86.138 40.04 87.088 41 88.077 42 92.033 44 88.077 58" fill="#3d9970" data-fill-palette-color="accent"></path></svg></g></svg></g><g id="text-0"><path d="M26.539 103.744v0c-0.686 0.139-1.603 0.212-2.751 0.219-1.141 0.009-2.391-0.029-3.748-0.114-1.355-0.091-2.701-0.215-4.038-0.371-1.33-0.154-2.537-0.334-3.621-0.542-1.084-0.208-1.914-0.426-2.489-0.655v0c-0.244-0.097-0.418-0.243-0.521-0.436v0c-0.476-0.842-0.885-1.933-1.228-3.273v0c-0.046-0.229-0.04-0.418 0.02-0.568v0c0.062-0.156 0.187-0.295 0.372-0.417v0c0.631-0.401 1.199-0.725 1.704-0.973 0.508-0.239 0.988-0.425 1.439-0.556v0c0.211-0.075 0.464-0.054 0.758 0.062v0l-0.094-0.037c0.757 0.302 1.646 0.606 2.669 0.912 1.025 0.3 2.097 0.575 3.215 0.826 1.12 0.244 2.206 0.438 3.257 0.581 1.045 0.141 1.967 0.201 2.766 0.179v0l0.041-0.103c-0.554-0.591-1.311-1.284-2.269-2.079-0.961-0.789-1.989-1.59-3.085-2.404-1.096-0.814-2.137-1.566-3.122-2.256-0.986-0.69-1.773-1.214-2.363-1.573v0c-0.44-0.277-0.682-0.598-0.725-0.963-0.037-0.362 0.052-0.813 0.267-1.35v0l0.845-2.12c0.244-0.613 0.51-1.014 0.796-1.204 0.286-0.19 0.657-0.231 1.114-0.122v0c0.694 0.168 1.652 0.347 2.873 0.537 1.221 0.19 2.519 0.37 3.893 0.542 1.374 0.171 2.67 0.311 3.887 0.419 1.214 0.1 2.161 0.151 2.841 0.155v0l0.052-0.132c-0.662-0.684-1.565-1.446-2.708-2.286-1.143-0.84-2.381-1.645-3.711-2.415-1.337-0.772-2.615-1.402-3.835-1.888v0l0.075 0.03c-0.294-0.117-0.494-0.269-0.6-0.457v0c-0.232-0.419-0.451-0.886-0.658-1.403-0.198-0.521-0.393-1.131-0.585-1.832v0c-0.051-0.216-0.049-0.396 0.009-0.54v0c0.07-0.175 0.193-0.311 0.369-0.407v0c0.626-0.388 1.19-0.703 1.692-0.945 0.506-0.233 0.985-0.415 1.436-0.547v0c0.206-0.063 0.444-0.04 0.712 0.067v0c0.595 0.252 1.346 0.685 2.253 1.3 0.904 0.622 1.876 1.346 2.917 2.174 1.043 0.836 2.07 1.706 3.079 2.609 1.01 0.903 1.922 1.777 2.737 2.624 0.811 0.838 1.431 1.563 1.86 2.177v0c0.284 0.396 0.487 0.723 0.609 0.981 0.122 0.259 0.161 0.532 0.119 0.82-0.042 0.288-0.166 0.688-0.37 1.2v0l-0.826 2.073c-0.229 0.575-0.489 0.99-0.779 1.244-0.298 0.258-0.785 0.415-1.46 0.472v0c-0.392 0.039-1.025 0.026-1.898-0.039-0.873-0.065-1.823-0.154-2.85-0.267-1.021-0.11-1.975-0.226-2.862-0.348-0.884-0.128-1.526-0.235-1.926-0.322v0c-0.391-0.091-0.863-0.207-1.416-0.347-0.553-0.141-0.987-0.26-1.303-0.357v0l-0.038 0.094c0.304 0.128 0.702 0.331 1.193 0.606 0.492 0.276 0.919 0.53 1.284 0.762v0c0.31 0.203 0.785 0.549 1.424 1.035 0.636 0.478 1.327 1.025 2.074 1.642 0.753 0.619 1.479 1.242 2.179 1.869 0.702 0.621 1.284 1.179 1.745 1.675v0c0.456 0.493 0.698 0.949 0.727 1.366 0.023 0.415-0.116 1.001-0.418 1.757v0l-0.845 2.12c-0.239 0.6-0.492 0.971-0.758 1.111-0.272 0.138-0.74 0.274-1.402 0.408zM9.967 102.311l-0.112-0.045 0.037 0.015c0.025 0.01 0.05 0.02 0.075 0.03zM21.453 73.29v0l0.075 0.03-0.038-0.015c-0.013-0.005-0.025-0.01-0.037-0.015z" fill="#f96420" data-fill-palette-color="primary"></path><path d="M49.508 64.658v0c-1.371 1.748-2.847 3.046-4.427 3.894-1.575 0.852-3.239 1.168-4.992 0.948-1.747-0.216-3.561-1.061-5.441-2.536v0c-2.828-2.219-4.396-4.621-4.704-7.206-0.312-2.58 0.474-5.07 2.356-7.469v0c1.226-1.562 2.54-2.666 3.944-3.31 1.409-0.64 2.824-0.857 4.244-0.65 1.43 0.206 2.775 0.803 4.035 1.793v0c1.229 0.964 1.84 1.952 1.832 2.964-0.011 1.018-0.491 2.131-1.437 3.338v0l-5.223 6.658c1.131 0.75 2.249 0.994 3.353 0.731 1.11-0.259 2.134-0.987 3.074-2.183v0c0.748-0.953 1.203-1.828 1.365-2.625 0.163-0.796 0.251-1.373 0.266-1.729v0c0.015-0.313 0.123-0.588 0.325-0.824v0c0.154-0.196 0.413-0.45 0.778-0.762 0.366-0.303 0.794-0.554 1.283-0.752v0c0.336-0.156 0.623-0.14 0.861 0.047v0c0.138 0.108 0.31 0.286 0.518 0.534v0c0.122 0.139 0.292 0.353 0.509 0.643 0.212 0.286 0.393 0.578 0.545 0.877v0c0.067 0.155 0.098 0.338 0.095 0.549v0c-0.014 0.323-0.082 0.808-0.205 1.456-0.128 0.644-0.412 1.435-0.85 2.375-0.447 0.941-1.149 2.021-2.104 3.239zM36.484 60.615v0l3.97-5.061c0.415-0.53 0.382-0.984-0.1-1.362v0c-0.736-0.578-1.537-0.833-2.401-0.767-0.859 0.07-1.65 0.566-2.373 1.488v0c-0.785 1.001-1.042 1.989-0.772 2.963 0.271 0.974 0.83 1.887 1.676 2.739z" fill="#f96420" data-fill-palette-color="primary"></path><path d="M69.355 45.774v0c-1.342 1.038-2.544 1.811-3.607 2.318-1.068 0.512-2.027 0.862-2.876 1.051-0.855 0.193-1.625 0.325-2.311 0.397v0l-15.795-20.412c-0.194-0.25-0.293-0.484-0.299-0.7v0c-0.004-0.907 0.157-2.019 0.483-3.336v0c0.071-0.216 0.162-0.368 0.274-0.454v0c0.133-0.103 0.303-0.153 0.508-0.151v0c0.715 0 1.34 0.032 1.874 0.095 0.544 0.065 1.036 0.156 1.477 0.274v0c0.214 0.056 0.417 0.209 0.61 0.46v0l5.852 7.562 0.056-0.043c0.009-0.858 0.226-1.771 0.652-2.739 0.431-0.972 1.307-1.969 2.627-2.99v0c1.475-1.141 2.955-1.742 4.44-1.802 1.48-0.056 2.914 0.328 4.301 1.153 1.391 0.83 2.682 2.014 3.873 3.553v0c1.285 1.661 2.171 3.372 2.657 5.132 0.48 1.765 0.367 3.538-0.34 5.319-0.703 1.787-2.188 3.557-4.456 5.313zM66.639 41.836v0c1.203-0.931 1.81-2.044 1.822-3.338 0.011-1.294-0.564-2.692-1.725-4.193v0c-1.174-1.517-2.307-2.398-3.399-2.643-1.096-0.25-2.181 0.041-3.256 0.873v0c-0.862 0.667-1.384 1.352-1.565 2.053-0.175 0.697-0.173 1.41 0.008 2.139v0l4.981 6.436c0.361-0.007 0.807-0.101 1.339-0.282 0.532-0.182 1.13-0.53 1.795-1.045z" fill="#f96420" data-fill-palette-color="primary"></path><path d="M92.994 21.839l-8.662 4.05c-0.372 0.174-0.644 0.078-0.815-0.288v0l-1.497-3.202c-0.171-0.366-0.071-0.636 0.302-0.81v0l8.662-4.049c0.366-0.171 0.634-0.074 0.806 0.292v0l1.496 3.202c0.171 0.366 0.074 0.634-0.292 0.805z" fill="#f96420" data-fill-palette-color="primary"></path><path d="M113.764 25.133v0c-1.373 0.309-2.535 0.449-3.486 0.422-0.958-0.026-1.746-0.142-2.366-0.348-0.619-0.206-1.113-0.409-1.482-0.609v0c-0.279-0.165-0.36-0.402-0.243-0.711v0l1.307-3.347c0.189-0.477 0.505-0.576 0.948-0.296v0c0.456 0.277 1.037 0.515 1.744 0.715 0.712 0.192 1.541 0.181 2.487-0.031v0c0.847-0.191 1.511-0.492 1.991-0.903 0.48-0.412 0.658-0.893 0.535-1.445v0c-0.086-0.381-0.277-0.666-0.575-0.854-0.298-0.188-0.784-0.341-1.459-0.458-0.668-0.119-1.599-0.254-2.793-0.407v0c-1.762-0.225-3.153-0.661-4.175-1.308-1.022-0.647-1.713-1.771-2.073-3.373v0c-0.331-1.471-0.193-2.761 0.413-3.871 0.608-1.103 1.5-2.014 2.677-2.733 1.178-0.713 2.46-1.226 3.845-1.538v0c1.76-0.396 3.032-0.509 3.815-0.34 0.788 0.161 1.305 0.31 1.55 0.448v0c0.227 0.121 0.405 0.282 0.533 0.481v0c0.276 0.462 0.553 1.093 0.829 1.894v0c0.16 0.468 0.11 0.81-0.152 1.027v0c-0.137 0.127-0.359 0.277-0.665 0.45-0.311 0.18-0.626 0.348-0.942 0.502-0.319 0.148-0.56 0.24-0.725 0.276v0c-0.053 0.012-0.112 0.008-0.178-0.011-0.065-0.013-0.181-0.07-0.349-0.17v0c-0.201-0.127-0.53-0.254-0.986-0.379-0.451-0.133-1.031-0.12-1.74 0.04v0c-0.69 0.155-1.246 0.397-1.668 0.727-0.415 0.335-0.558 0.784-0.432 1.349v0c0.137 0.611 0.54 1.003 1.207 1.178 0.667 0.174 1.742 0.35 3.223 0.527v0c1.161 0.132 2.192 0.328 3.093 0.588 0.902 0.266 1.649 0.706 2.242 1.318 0.6 0.61 1.035 1.52 1.306 2.728v0c0.351 1.563 0.208 2.92-0.43 4.071-0.64 1.144-1.575 2.079-2.805 2.804-1.229 0.732-2.57 1.261-4.021 1.587z" fill="#f96420" data-fill-palette-color="primary"></path><path d="M137.405 22.43v0c-1.932 0.005-3.468-0.533-4.608-1.614-1.14-1.081-1.713-2.574-1.718-4.479v0c-0.003-0.99 0.177-1.909 0.538-2.758 0.361-0.849 0.989-1.598 1.883-2.246 0.9-0.655 2.161-1.184 3.782-1.585 1.621-0.395 3.694-0.629 6.219-0.703v0c-0.003-1.198-0.305-2.059-0.906-2.582-0.594-0.524-1.49-0.784-2.687-0.781v0c-1.077 0.003-1.958 0.19-2.645 0.562-0.679 0.365-1.106 0.615-1.28 0.75v0c-0.181 0.155-0.403 0.216-0.666 0.184v0c-0.357-0.053-0.734-0.146-1.132-0.28-0.404-0.127-0.835-0.277-1.293-0.451v0c-0.067-0.027-0.142-0.067-0.223-0.121-0.074-0.06-0.118-0.151-0.132-0.272v0c0-0.067 0.006-0.148 0.02-0.242 0.013-0.101 0.043-0.283 0.089-0.546v0c0.053-0.263 0.133-0.589 0.24-0.98 0.1-0.384 0.197-0.68 0.291-0.889v0c0.121-0.229 0.319-0.442 0.594-0.638v0c0.222-0.182 0.897-0.48 2.027-0.894 1.13-0.407 2.765-0.613 4.906-0.618v0c5.904-0.015 8.863 2.849 8.877 8.591v0l0.029 11.157c0.001 0.249-0.07 0.465-0.211 0.647-0.134 0.175-0.366 0.263-0.696 0.264v0l-2.958 0.008c-0.209 0.001-0.397-0.029-0.566-0.09-0.162-0.06-0.317-0.174-0.465-0.342v0l-1.226-1.572-0.132 0.001c-0.604 0.883-1.413 1.522-2.428 1.914-1.022 0.4-2.196 0.601-3.523 0.605zM139.565 17.85v0c1.205-0.003 2.116-0.315 2.734-0.936 0.618-0.621 1.01-1.258 1.176-1.911v0l-0.005-2.191c-1.824 0.005-3.194 0.149-4.109 0.434-0.908 0.285-1.513 0.653-1.814 1.106-0.302 0.459-0.452 0.95-0.451 1.475v0c0.002 0.761 0.239 1.288 0.711 1.583 0.472 0.295 1.058 0.442 1.758 0.44z" fill="#f96420" data-fill-palette-color="primary"></path><path d="M182.487 11.628v0c0.636-0.426 1.524-0.758 2.665-0.995 1.135-0.24 2.588-0.091 4.36 0.446v0c2.519 0.764 4.142 1.963 4.87 3.598 0.722 1.633 0.69 3.744-0.095 6.334v0l-3.344 11.025c-0.113 0.374-0.27 0.611-0.469 0.712-0.198 0.095-0.486 0.085-0.867-0.03v0l-3.884-1.179c-0.38-0.115-0.626-0.267-0.738-0.455-0.116-0.197-0.117-0.482-0.004-0.856v0l3.045-10.04c0.428-1.411 0.477-2.5 0.147-3.268-0.332-0.762-1.013-1.299-2.043-1.612v0c-0.915-0.277-1.701-0.294-2.359-0.051-0.66 0.25-1.207 0.686-1.642 1.307v0l-3.554 11.721c-0.113 0.374-0.273 0.61-0.479 0.709-0.198 0.095-0.486 0.085-0.867-0.031v0l-3.884-1.178c-0.38-0.115-0.626-0.267-0.738-0.456-0.11-0.195-0.108-0.479 0.006-0.853v0l3.045-10.039c0.416-1.372 0.437-2.46 0.061-3.263-0.377-0.797-1.027-1.335-1.948-1.614v0c-0.863-0.262-1.623-0.26-2.281 0.004-0.657 0.265-1.23 0.682-1.719 1.251v0l-3.555 11.721c-0.113 0.374-0.273 0.61-0.479 0.71-0.198 0.095-0.486 0.085-0.867-0.031v0l-3.884-1.178c-0.38-0.115-0.626-0.267-0.737-0.456-0.11-0.195-0.108-0.479 0.005-0.853v0l4.797-15.818c0.092-0.303 0.223-0.516 0.395-0.64v0c0.372-0.274 0.799-0.535 1.282-0.782 0.479-0.256 1.051-0.508 1.717-0.756v0c0.207-0.078 0.384-0.095 0.532-0.05v0c0.142 0.043 0.28 0.155 0.415 0.337v0c0.403 0.572 0.737 1.106 1.002 1.602 0.26 0.487 0.474 0.977 0.641 1.471v0l0.096 0.029c0.589-0.412 1.418-0.745 2.487-0.997 1.062-0.255 2.437-0.126 4.125 0.385v0c1.61 0.488 2.732 1.092 3.365 1.812 0.633 0.72 1.093 1.489 1.379 2.307z" fill="#f96420" data-fill-palette-color="primary"></path><path d="M204.938 42.973v0c-3.851-2.657-4.167-6.318-0.948-10.984v0l5.672-8.256c0.18-0.26 0.37-0.424 0.571-0.489v0c0.863-0.279 1.972-0.463 3.325-0.552v0c0.232-0.004 0.406 0.034 0.522 0.115v0c0.139 0.096 0.236 0.245 0.293 0.447v0c0.221 0.676 0.38 1.28 0.478 1.814 0.107 0.532 0.169 1.029 0.186 1.49v0c0.015 0.215-0.067 0.453-0.247 0.713v0l-5.379 7.796c-1.617 2.344-1.498 4.156 0.359 5.437v0c0.92 0.635 1.878 0.822 2.876 0.561 0.998-0.26 1.877-0.942 2.637-2.044v0l5.333-7.73c0.18-0.26 0.37-0.424 0.571-0.489v0c0.863-0.279 1.972-0.463 3.325-0.552v0c0.232-0.004 0.406 0.034 0.522 0.115v0c0.139 0.096 0.236 0.245 0.293 0.447v0c0.221 0.676 0.38 1.28 0.478 1.814 0.107 0.532 0.169 1.029 0.186 1.49v0c0.015 0.215-0.067 0.453-0.247 0.713v0l-9.72 14.088c-0.141 0.205-0.336 0.333-0.583 0.382-0.238 0.048-0.465-0.002-0.681-0.15v0l-2.435-1.681c-0.172-0.119-0.31-0.25-0.414-0.396-0.099-0.142-0.161-0.324-0.187-0.546v0l-0.111-1.99-0.108-0.075c-0.349 0.127-0.815 0.227-1.397 0.3-0.586 0.078-1.304 0-2.156-0.236-0.851-0.236-1.856-0.753-3.014-1.552z" fill="#f96420" data-fill-palette-color="primary"></path><path d="M240.823 50.303l-1.089 0.978 0.047 0.052c2.7-1.093 4.907-0.685 6.619 1.225v0c0.216 0.241 0.383 0.452 0.502 0.634 0.114 0.178 0.188 0.306 0.222 0.384v0c0.08 0.19 0.033 0.364-0.143 0.522v0l-3.54 3.176c-0.301 0.27-0.541 0.169-0.72-0.304v0c-0.058-0.165-0.158-0.383-0.3-0.653-0.148-0.265-0.397-0.594-0.748-0.984v0c-0.904-1.007-1.978-1.463-3.222-1.369-1.245 0.095-2.503 0.713-3.776 1.855v0l-6.403 5.745c-0.291 0.261-0.55 0.38-0.778 0.358-0.218-0.021-0.46-0.18-0.725-0.475v0l-2.71-3.022c-0.265-0.296-0.397-0.553-0.395-0.772 0.007-0.224 0.156-0.466 0.447-0.727v0l12.304-11.038c0.235-0.211 0.459-0.326 0.669-0.342v0c0.46-0.042 0.961-0.043 1.502-0.005 0.542 0.029 1.162 0.111 1.86 0.244v0c0.132 0.026 0.244 0.07 0.336 0.133 0.087 0.057 0.158 0.116 0.212 0.176v0c0.121 0.135 0.195 0.318 0.221 0.548v0c0.092 1.383 0.059 2.434-0.1 3.155v0c-0.039 0.198-0.137 0.367-0.292 0.506z" fill="#f96420" data-fill-palette-color="primary"></path><path d="M239.193 79.766v0c-0.958-1.678-1.248-3.279-0.871-4.805 0.377-1.525 1.393-2.76 3.047-3.705v0c0.859-0.491 1.747-0.788 2.665-0.893 0.917-0.105 1.878 0.071 2.883 0.528 1.014 0.46 2.096 1.295 3.245 2.508 1.143 1.215 2.37 2.902 3.68 5.061v0c1.041-0.594 1.64-1.281 1.799-2.062 0.162-0.775-0.054-1.682-0.647-2.723v0c-0.534-0.935-1.132-1.609-1.794-2.022-0.653-0.41-1.081-0.658-1.285-0.743v0c-0.225-0.081-0.387-0.244-0.488-0.489v0c-0.13-0.337-0.235-0.711-0.315-1.122-0.089-0.414-0.171-0.863-0.247-1.348v0c-0.01-0.072-0.012-0.156-0.005-0.253 0.016-0.094 0.073-0.177 0.172-0.249v0c0.058-0.033 0.132-0.068 0.221-0.103 0.094-0.038 0.267-0.102 0.518-0.191v0c0.255-0.083 0.578-0.175 0.971-0.275 0.383-0.103 0.689-0.165 0.917-0.187v0c0.259-0.008 0.541 0.059 0.848 0.202v0c0.268 0.103 0.861 0.543 1.777 1.322 0.911 0.782 1.898 2.102 2.96 3.962v0c2.927 5.127 1.897 9.114-3.09 11.96v0l-9.689 5.532c-0.216 0.123-0.438 0.169-0.667 0.137-0.219-0.03-0.41-0.188-0.573-0.475v0l-1.467-2.57c-0.103-0.181-0.171-0.36-0.201-0.536-0.027-0.17-0.005-0.362 0.068-0.573v0l0.762-1.842-0.065-0.114c-1.066-0.089-2.021-0.478-2.864-1.167-0.852-0.692-1.607-1.613-2.265-2.765zM244.242 79.383v0c0.597 1.046 1.319 1.685 2.163 1.916 0.845 0.231 1.593 0.257 2.243 0.08v0l1.903-1.087c-0.904-1.584-1.706-2.704-2.406-3.358-0.696-0.649-1.315-0.993-1.857-1.033-0.548-0.036-1.05 0.076-1.505 0.336v0c-0.661 0.377-1.003 0.844-1.026 1.4-0.024 0.556 0.138 1.138 0.485 1.746z" fill="#f96420" data-fill-palette-color="primary"></path><path d="M274.906 91.683v0c0.16-0.052 0.316-0.05 0.469 0.006 0.161 0.061 0.367 0.138 0.618 0.233v0c0.518 0.22 1.073 0.488 1.666 0.805 0.594 0.323 1.177 0.653 1.747 0.99v0c0.335 0.223 0.527 0.408 0.575 0.555v0c0.048 0.147 0.005 0.416-0.129 0.808v0c-0.546 1.298-1.114 2.44-1.705 3.426v0c-0.133 0.221-0.249 0.407-0.348 0.56-0.094 0.144-0.222 0.242-0.382 0.295v0c-0.166 0.054-0.327 0.05-0.482-0.013-0.164-0.067-0.379-0.152-0.647-0.256v0c-0.501-0.211-1.046-0.469-1.634-0.772-0.588-0.303-1.162-0.629-1.722-0.977v0c-0.204-0.125-0.345-0.231-0.422-0.319-0.076-0.081-0.129-0.167-0.159-0.256v0c-0.029-0.09-0.036-0.186-0.02-0.291 0.013-0.111 0.061-0.289 0.143-0.535v0c0.24-0.631 0.508-1.239 0.805-1.825 0.299-0.579 0.599-1.113 0.9-1.601v0c0.146-0.225 0.263-0.408 0.351-0.551 0.084-0.134 0.209-0.228 0.376-0.282zM269.831 100.854l-17.207 5.629c-0.371 0.121-0.656 0.126-0.856 0.014-0.191-0.108-0.348-0.35-0.472-0.727v0l-1.262-3.858c-0.123-0.377-0.14-0.666-0.049-0.866 0.097-0.202 0.331-0.363 0.702-0.485v0l17.207-5.628c0.377-0.123 0.662-0.131 0.853-0.024 0.191 0.108 0.348 0.35 0.472 0.727v0l1.262 3.858c0.123 0.377 0.14 0.666 0.049 0.866-0.088 0.206-0.321 0.371-0.699 0.494z" fill="#f96420" data-fill-palette-color="primary"></path><path d="M9.585 182.357v0c0.444-0.635 1.111-1.394 1.999-2.277 0.891-0.877 1.904-1.801 3.04-2.772 1.139-0.965 2.291-1.895 3.458-2.792 1.161-0.894 2.248-1.674 3.262-2.339 1.008-0.663 1.826-1.125 2.455-1.384v0c0.268-0.11 0.518-0.13 0.751-0.059v0c1.013 0.303 2.164 0.851 3.453 1.645v0c0.219 0.143 0.362 0.295 0.429 0.457v0c0.069 0.168 0.074 0.374 0.014 0.617v0c-0.181 0.796-0.379 1.482-0.593 2.057-0.211 0.582-0.443 1.097-0.696 1.544v0c-0.115 0.215-0.335 0.389-0.658 0.522v0l0.102-0.042c-0.828 0.341-1.759 0.784-2.794 1.328-1.036 0.544-2.087 1.145-3.156 1.803-1.068 0.659-2.068 1.333-2.999 2.024-0.931 0.69-1.705 1.348-2.321 1.973v0l0.05 0.121c0.89 0.04 2.013 0.007 3.367-0.099 1.36-0.11 2.781-0.266 4.263-0.47 1.484-0.197 2.878-0.401 4.182-0.611 1.298-0.208 2.317-0.395 3.056-0.561v0c0.561-0.122 0.997-0.054 1.308 0.203 0.308 0.252 0.582 0.67 0.823 1.255v0l0.959 2.324c0.275 0.666 0.368 1.184 0.281 1.556-0.081 0.368-0.342 0.68-0.783 0.934v0c-0.672 0.401-1.56 0.993-2.665 1.777-1.104 0.783-2.261 1.632-3.471 2.546-1.21 0.914-2.337 1.794-3.379 2.639-1.034 0.849-1.818 1.533-2.354 2.052v0l0.058 0.14c1.042 0.036 2.334-0.052 3.876-0.267 1.543-0.214 3.132-0.527 4.768-0.94 1.636-0.413 3.119-0.893 4.451-1.442v0l-0.084 0.034c0.324-0.133 0.601-0.168 0.832-0.102v0c0.499 0.151 1.026 0.352 1.581 0.603 0.558 0.258 1.175 0.589 1.852 0.995v0c0.214 0.13 0.354 0.276 0.421 0.438v0c0.077 0.187 0.079 0.386 0.007 0.598v0c-0.187 0.783-0.388 1.46-0.605 2.03-0.216 0.57-0.451 1.078-0.703 1.524v0c-0.118 0.209-0.323 0.373-0.616 0.495v0c-0.659 0.257-1.582 0.489-2.771 0.695-1.18 0.21-2.5 0.383-3.959 0.519-1.45 0.139-2.92 0.239-4.409 0.3-1.483 0.058-2.866 0.068-4.149 0.029-1.277-0.041-2.32-0.135-3.131-0.281v0c-0.521-0.098-0.928-0.203-1.222-0.315-0.3-0.109-0.54-0.294-0.721-0.555-0.187-0.258-0.395-0.667-0.626-1.227v0l-0.932-2.259c-0.259-0.629-0.371-1.154-0.333-1.577 0.034-0.429 0.293-0.922 0.777-1.479v0c0.284-0.336 0.794-0.812 1.53-1.428 0.736-0.617 1.547-1.272 2.433-1.965 0.893-0.696 1.734-1.331 2.524-1.904 0.79-0.574 1.38-0.98 1.769-1.221v0c0.37-0.233 0.827-0.501 1.371-0.806 0.542-0.311 0.975-0.548 1.301-0.712v0l-0.042-0.102c-0.341 0.126-0.81 0.269-1.407 0.427-0.597 0.159-1.124 0.285-1.581 0.379v0c-0.407 0.073-1.043 0.164-1.908 0.274-0.871 0.112-1.838 0.212-2.901 0.301-1.057 0.086-2.101 0.149-3.133 0.189-1.023 0.043-1.91 0.049-2.659 0.015v0c-0.731-0.041-1.264-0.214-1.601-0.519-0.337-0.305-0.676-0.872-1.018-1.699v0l-0.955-2.315c-0.27-0.653-0.353-1.139-0.252-1.458 0.104-0.312 0.365-0.773 0.784-1.383zM23.715 170.828l0.121-0.051-0.037 0.016c-0.025 0.01-0.053 0.022-0.084 0.035zM36.843 202.418v0l-0.084 0.035 0.047-0.019c0.012-0.005 0.025-0.01 0.037-0.016z" fill="#f96420" data-fill-palette-color="primary"></path><path d="M33.135 229.57v0c-1.527-1.891-2.55-3.785-3.07-5.684-0.516-1.893-0.443-3.748 0.219-5.563 0.663-1.815 2.015-3.548 4.058-5.197v0c3.059-2.469 6.006-3.551 8.841-3.244 2.836 0.297 5.304 1.748 7.406 4.351v0c1.366 1.692 2.219 3.37 2.558 5.034 0.341 1.654 0.227 3.217-0.342 4.688-0.574 1.475-1.544 2.765-2.911 3.869v0c-1.336 1.078-2.542 1.486-3.62 1.222-1.079-0.254-2.149-1.038-3.21-2.353v0l-5.823-7.212c-1.08 1.019-1.618 2.154-1.612 3.404 0.007 1.241 0.534 2.51 1.583 3.809v0c0.833 1.032 1.656 1.735 2.467 2.109 0.807 0.378 1.402 0.616 1.784 0.714v0c0.331 0.088 0.598 0.27 0.803 0.545v0c0.173 0.215 0.376 0.557 0.609 1.027 0.238 0.466 0.403 0.981 0.496 1.547v0c0.082 0.401-0.006 0.705-0.263 0.912v0c-0.147 0.118-0.379 0.259-0.698 0.421v0c-0.182 0.095-0.452 0.222-0.809 0.381-0.362 0.162-0.722 0.284-1.08 0.366v0c-0.176 0.039-0.379 0.029-0.607-0.029v0c-0.339-0.098-0.838-0.293-1.496-0.583-0.668-0.291-1.445-0.788-2.333-1.491-0.897-0.704-1.88-1.718-2.95-3.043zM40.665 216.665v0l4.427 5.484c0.461 0.571 0.956 0.643 1.485 0.216v0c0.796-0.643 1.261-1.433 1.394-2.372 0.143-0.937-0.187-1.904-0.99-2.899v0c-0.88-1.089-1.873-1.607-2.98-1.552-1.106 0.045-2.218 0.419-3.336 1.123z" fill="#f96420" data-fill-palette-color="primary"></path><path d="M57.047 251.801v0c-1.483-1.119-2.65-2.171-3.5-3.157-0.844-0.982-1.489-1.894-1.933-2.736-0.45-0.845-0.812-1.624-1.085-2.335v0l17.029-22.582c0.207-0.274 0.423-0.444 0.649-0.509v0c0.962-0.269 2.188-0.42 3.679-0.451v0c0.246 0.009 0.431 0.06 0.555 0.153v0c0.15 0.113 0.253 0.279 0.308 0.497v0c0.207 0.754 0.354 1.426 0.441 2.015 0.087 0.589 0.13 1.135 0.129 1.64v0c-0.001 0.236-0.104 0.49-0.311 0.765v0l-6.311 8.368 0.073 0.055c0.899-0.241 1.925-0.277 3.078-0.107 1.149 0.175 2.455 0.814 3.917 1.916v0c1.634 1.232 2.697 2.624 3.188 4.175 0.491 1.551 0.499 3.179 0.021 4.885-0.477 1.706-1.358 3.411-2.642 5.115v0c-1.39 1.844-2.946 3.275-4.668 4.295-1.722 1.02-3.628 1.412-5.719 1.177-2.094-0.23-4.394-1.29-6.898-3.179zM60.422 247.795v0c1.333 1.005 2.685 1.325 4.057 0.96 1.377-0.361 2.689-1.37 3.937-3.025v0c1.269-1.682 1.874-3.139 1.817-4.371-0.052-1.228-0.672-2.29-1.86-3.186v0c-0.951-0.717-1.823-1.071-2.614-1.061-0.801 0.011-1.56 0.219-2.278 0.622v0l-5.368 7.119c0.111 0.379 0.339 0.825 0.685 1.339 0.346 0.514 0.887 1.048 1.624 1.603z" fill="#f96420" data-fill-palette-color="primary"></path><path d="M92.993 261.07l-9.532-4.357c-0.41-0.188-0.523-0.483-0.339-0.888v0l1.608-3.517c0.185-0.404 0.482-0.512 0.892-0.325v0l9.533 4.357c0.404 0.185 0.514 0.479 0.329 0.883v0l-1.608 3.518c-0.185 0.404-0.479 0.514-0.883 0.329z" fill="#f96420" data-fill-palette-color="primary"></path><path d="M109.364 275.64v0c-1.505-0.332-2.726-0.736-3.662-1.211-0.936-0.475-1.664-0.957-2.184-1.444-0.518-0.494-0.913-0.925-1.183-1.295v0c-0.204-0.293-0.175-0.566 0.088-0.818v0l2.862-2.708c0.409-0.385 0.767-0.337 1.075 0.144v0c0.321 0.484 0.788 0.991 1.402 1.519 0.614 0.528 1.44 0.907 2.479 1.136v0c0.927 0.205 1.724 0.215 2.392 0.032 0.669-0.19 1.071-0.588 1.204-1.192v0c0.093-0.421 0.034-0.796-0.176-1.125-0.205-0.321-0.615-0.697-1.229-1.13-0.615-0.432-1.479-0.998-2.593-1.699v0c-1.644-1.045-2.823-2.126-3.535-3.241-0.712-1.115-0.874-2.551-0.487-4.306v0c0.357-1.617 1.095-2.836 2.214-3.658 1.117-0.815 2.428-1.301 3.93-1.459 1.505-0.164 3.016-0.079 4.535 0.257v0c1.926 0.425 3.24 0.905 3.943 1.438 0.704 0.528 1.146 0.915 1.326 1.162v0c0.17 0.23 0.271 0.473 0.304 0.729v0c0.062 0.593 0.043 1.35-0.057 2.272v0c-0.062 0.531-0.273 0.846-0.633 0.946v0c-0.193 0.061-0.482 0.107-0.868 0.14-0.393 0.031-0.779 0.049-1.16 0.054-0.386-0.002-0.67-0.024-0.854-0.065v0c-0.059-0.013-0.115-0.043-0.167-0.088-0.058-0.047-0.147-0.16-0.266-0.338v0c-0.145-0.218-0.414-0.498-0.808-0.84-0.388-0.334-0.97-0.586-1.745-0.758v0c-0.756-0.167-1.417-0.185-1.984-0.055-0.568 0.137-0.92 0.514-1.056 1.132v0c-0.149 0.677 0.064 1.255 0.641 1.734 0.583 0.48 1.568 1.156 2.954 2.027v0c1.087 0.667 2.017 1.341 2.791 2.022 0.775 0.674 1.316 1.455 1.623 2.344 0.301 0.887 0.305 1.991 0.014 3.312v0c-0.379 1.716-1.151 2.996-2.317 3.842-1.164 0.839-2.528 1.334-4.091 1.486-1.557 0.153-3.131 0.054-4.722-0.298z" fill="#f96420" data-fill-palette-color="primary"></path><path d="M137.185 278.753v0c-2.12-0.006-3.802-0.606-5.044-1.801-1.242-1.195-1.86-2.836-1.854-4.923v0c0.003-1.077 0.204-2.083 0.604-3.017 0.4-0.928 1.095-1.744 2.087-2.448 0.985-0.711 2.366-1.283 4.144-1.715 1.785-0.426 4.061-0.672 6.828-0.739v0c0.004-1.306-0.324-2.249-0.981-2.83-0.651-0.574-1.633-0.863-2.946-0.866v0c-1.178-0.003-2.145 0.193-2.9 0.587-0.748 0.402-1.217 0.677-1.406 0.824v0c-0.202 0.168-0.448 0.231-0.738 0.19v0c-0.384-0.062-0.797-0.164-1.241-0.306-0.437-0.143-0.908-0.309-1.412-0.499v0c-0.067-0.027-0.145-0.074-0.232-0.142-0.087-0.068-0.138-0.165-0.15-0.293v0c0-0.074 0.007-0.165 0.021-0.273 0.014-0.108 0.051-0.306 0.112-0.595v0c0.055-0.283 0.14-0.639 0.256-1.07 0.116-0.424 0.224-0.75 0.326-0.978v0c0.135-0.242 0.355-0.47 0.658-0.685v0c0.243-0.201 0.984-0.526 2.224-0.973 1.24-0.441 3.034-0.658 5.384-0.652v0c6.469 0.018 9.695 3.174 9.677 9.468v0l-0.034 12.238c-0.001 0.269-0.079 0.501-0.234 0.696-0.149 0.195-0.405 0.292-0.769 0.291v0l-3.241-0.009c-0.229-0.001-0.434-0.035-0.615-0.103-0.175-0.061-0.343-0.186-0.504-0.375v0l-1.338-1.73-0.152-0.001c-0.662 0.961-1.553 1.655-2.671 2.083-1.119 0.434-2.405 0.65-3.859 0.646zM139.571 273.741v0c1.326 0.004 2.33-0.333 3.012-1.011 0.682-0.671 1.115-1.367 1.299-2.087v0l0.006-2.403c-1.999-0.006-3.501 0.145-4.504 0.452-1.004 0.307-1.671 0.709-2.003 1.206-0.331 0.497-0.498 1.035-0.499 1.614v0c-0.002 0.835 0.255 1.414 0.772 1.739 0.517 0.325 1.156 0.488 1.917 0.49z" fill="#f96420" data-fill-palette-color="primary"></path><path d="M178.464 250.861v0c0.325-0.776 0.929-1.619 1.811-2.53 0.889-0.913 2.305-1.668 4.249-2.264v0c2.755-0.845 4.963-0.748 6.627 0.291 1.659 1.047 2.924 2.99 3.793 5.828v0l3.701 12.068c0.126 0.412 0.126 0.722 0 0.929-0.124 0.214-0.393 0.384-0.805 0.511v0l-4.257 1.305c-0.412 0.126-0.729 0.136-0.952 0.028-0.215-0.103-0.385-0.361-0.512-0.772v0l-3.372-10.996c-0.474-1.545-1.095-2.561-1.865-3.05-0.772-0.496-1.721-0.571-2.847-0.226v0c-1.01 0.31-1.737 0.776-2.18 1.397-0.448 0.63-0.68 1.363-0.698 2.2v0l3.934 12.83c0.126 0.412 0.126 0.722 0 0.929-0.118 0.212-0.386 0.382-0.804 0.511v0l-4.258 1.306c-0.412 0.126-0.729 0.136-0.952 0.028-0.215-0.103-0.385-0.361-0.512-0.773v0l-3.372-10.995c-0.46-1.5-1.107-2.498-1.943-2.995-0.829-0.499-1.746-0.595-2.749-0.287v0c-0.953 0.292-1.647 0.759-2.084 1.399-0.435 0.647-0.7 1.38-0.795 2.198v0l3.935 12.829c0.126 0.412 0.126 0.722 0 0.93-0.118 0.212-0.383 0.381-0.795 0.508v0l-4.257 1.305c-0.418 0.128-0.736 0.138-0.953 0.028-0.221-0.101-0.395-0.358-0.521-0.769v0l-5.311-17.319c-0.101-0.328-0.111-0.603-0.031-0.825v0c0.171-0.475 0.398-0.974 0.681-1.497 0.29-0.525 0.66-1.107 1.112-1.746v0c0.132-0.188 0.282-0.308 0.45-0.36v0c0.154-0.047 0.349-0.033 0.583 0.043v0c0.713 0.281 1.342 0.564 1.887 0.847 0.538 0.286 1.033 0.602 1.484 0.95v0l0.106-0.033c0.288-0.736 0.839-1.546 1.653-2.429 0.813-0.883 2.144-1.608 3.991-2.174v0c1.757-0.539 3.144-0.676 4.162-0.41 1.02 0.272 1.908 0.689 2.665 1.252z" fill="#f96420" data-fill-palette-color="primary"></path><path d="M218.625 253.612v0c-4.2 2.945-8.083 1.874-11.65-3.213v0l-6.318-8.976c-0.197-0.281-0.292-0.539-0.284-0.774v0c0.04-0.998 0.275-2.211 0.704-3.639v0c0.084-0.232 0.19-0.392 0.316-0.481v0c0.154-0.108 0.344-0.155 0.569-0.139v0c0.781 0.036 1.466 0.103 2.052 0.201 0.587 0.098 1.12 0.226 1.6 0.382v0c0.224 0.073 0.434 0.25 0.632 0.532v0l5.953 8.49c1.797 2.563 3.71 3.133 5.738 1.711v0c1.003-0.703 1.558-1.618 1.664-2.745 0.115-1.125-0.248-2.288-1.09-3.49v0l-5.907-8.424c-0.197-0.281-0.292-0.539-0.285-0.775v0c0.04-0.998 0.272-2.209 0.696-3.633v0c0.084-0.232 0.192-0.394 0.325-0.487v0c0.154-0.108 0.341-0.153 0.56-0.133v0c0.781 0.036 1.466 0.103 2.052 0.201 0.587 0.098 1.12 0.226 1.601 0.382v0c0.229 0.069 0.443 0.245 0.639 0.526v0l10.771 15.361c0.155 0.22 0.211 0.465 0.169 0.733-0.042 0.268-0.182 0.485-0.419 0.651v0l-2.654 1.861c-0.187 0.131-0.375 0.222-0.562 0.271-0.178 0.051-0.387 0.046-0.628-0.016v0l-2.091-0.643-0.124 0.087c0.002 0.401-0.072 0.918-0.221 1.549-0.144 0.627-0.5 1.333-1.068 2.117-0.564 0.79-1.477 1.628-2.74 2.513z" fill="#f96420" data-fill-palette-color="primary"></path><path d="M229.494 217.038l1.193 1.06 0.06-0.068c-1.524-2.795-1.352-5.244 0.517-7.348v0c0.237-0.267 0.444-0.474 0.621-0.623 0.187-0.149 0.317-0.245 0.39-0.288v0c0.203-0.117 0.4-0.09 0.592 0.08v0l3.895 3.46c0.332 0.295 0.251 0.569-0.245 0.823v0c-0.167 0.086-0.387 0.223-0.662 0.411-0.275 0.188-0.605 0.498-0.989 0.931v0c-0.988 1.112-1.352 2.342-1.091 3.691 0.256 1.344 1.083 2.637 2.483 3.88v0l7.051 6.263c0.322 0.286 0.483 0.551 0.483 0.794 0.01 0.243-0.129 0.525-0.415 0.847v0l-2.957 3.329c-0.291 0.327-0.557 0.5-0.799 0.519-0.241 0.029-0.523-0.1-0.845-0.386v0l-13.543-12.03c-0.257-0.228-0.409-0.457-0.456-0.689v0c-0.101-0.495-0.166-1.039-0.197-1.633-0.026-0.599-0.012-1.289 0.042-2.069v0c0.011-0.144 0.044-0.267 0.1-0.371 0.056-0.103 0.113-0.188 0.171-0.253v0c0.134-0.151 0.321-0.255 0.561-0.313v0c1.491-0.269 2.644-0.361 3.46-0.276v0c0.211 0.016 0.404 0.102 0.58 0.259z" fill="#f96420" data-fill-palette-color="primary"></path><path d="M258.766 210.124v0c-1.051 1.842-2.403 3.008-4.055 3.499-1.652 0.491-3.384 0.219-5.197-0.816v0c-0.935-0.534-1.711-1.205-2.326-2.014-0.61-0.805-0.976-1.813-1.1-3.023-0.132-1.207 0.052-2.691 0.553-4.451 0.51-1.763 1.419-3.864 2.726-6.303v0c-1.134-0.647-2.116-0.828-2.946-0.543-0.821 0.283-1.556 0.995-2.207 2.135v0c-0.584 1.023-0.89 1.96-0.919 2.812-0.02 0.849-0.012 1.392 0.023 1.63v0c0.046 0.259-0.02 0.504-0.199 0.735v0c-0.243 0.303-0.536 0.613-0.879 0.929-0.34 0.31-0.717 0.637-1.13 0.982v0c-0.057 0.045-0.136 0.089-0.238 0.132-0.102 0.043-0.212 0.038-0.329-0.014v0c-0.064-0.037-0.14-0.088-0.227-0.153-0.087-0.065-0.241-0.196-0.463-0.392v0c-0.219-0.187-0.487-0.437-0.804-0.749-0.312-0.31-0.542-0.565-0.69-0.767v0c-0.144-0.237-0.234-0.541-0.271-0.91v0c-0.055-0.311 0.028-1.116 0.25-2.415 0.228-1.296 0.925-2.964 2.09-5.004v0c3.207-5.618 7.544-6.867 13.01-3.747v0l10.628 6.067c0.234 0.133 0.397 0.316 0.49 0.547 0.096 0.225 0.054 0.496-0.126 0.812v0l-1.607 2.815c-0.113 0.199-0.244 0.36-0.393 0.485-0.139 0.122-0.331 0.206-0.575 0.253v0l-2.165 0.31-0.075 0.132c0.509 1.05 0.674 2.167 0.493 3.351-0.174 1.187-0.621 2.412-1.342 3.675zM255.584 205.576v0c0.657-1.152 0.859-2.191 0.606-3.119-0.248-0.924-0.639-1.644-1.174-2.159v0l-2.087-1.191c-0.991 1.736-1.601 3.117-1.83 4.141-0.228 1.025-0.208 1.804 0.062 2.337 0.269 0.533 0.655 0.944 1.157 1.231v0c0.725 0.414 1.356 0.476 1.894 0.186 0.538-0.29 0.995-0.765 1.372-1.426z" fill="#f96420" data-fill-palette-color="primary"></path><path d="M241.75 176.942v0c-0.172-0.057-0.31-0.167-0.412-0.329-0.098-0.153-0.226-0.356-0.383-0.607v0c-0.315-0.524-0.63-1.122-0.946-1.795-0.317-0.666-0.616-1.334-0.897-2.002v0c-0.145-0.417-0.19-0.706-0.137-0.865v0c0.055-0.166 0.267-0.376 0.636-0.629v0c1.328-0.792 2.576-1.426 3.742-1.903v0c0.264-0.111 0.485-0.2 0.664-0.268 0.185-0.066 0.364-0.07 0.537-0.013v0c0.179 0.06 0.319 0.17 0.421 0.332 0.096 0.16 0.227 0.374 0.393 0.642v0c0.304 0.513 0.617 1.096 0.938 1.75 0.321 0.654 0.612 1.315 0.872 1.983v0c0.102 0.247 0.158 0.432 0.166 0.556 0.015 0.126 0.006 0.236-0.026 0.332v0c-0.032 0.096-0.09 0.186-0.175 0.271-0.079 0.087-0.237 0.212-0.476 0.374v0c-0.617 0.404-1.249 0.765-1.894 1.082-0.645 0.317-1.257 0.589-1.836 0.814v0c-0.277 0.106-0.497 0.193-0.661 0.259-0.172 0.07-0.348 0.076-0.526 0.016zM252.204 172.178l18.823 6.275c0.409 0.136 0.661 0.316 0.757 0.54 0.104 0.219 0.088 0.533-0.048 0.942v0l-1.409 4.224c-0.138 0.415-0.315 0.679-0.53 0.792-0.211 0.121-0.52 0.114-0.929-0.022v0l-18.823-6.275c-0.409-0.136-0.664-0.317-0.766-0.543-0.104-0.219-0.087-0.536 0.051-0.952v0l1.408-4.224c0.136-0.409 0.312-0.669 0.527-0.782 0.217-0.119 0.53-0.111 0.939 0.025z" fill="#f96420" data-fill-palette-color="primary"></path><path d="M0 139.288c0-6.538 5.3-11.838 11.838-11.837 6.538 0 11.838 5.3 11.838 11.837 0 6.538-5.3 11.838-11.838 11.838-6.538 0-11.838-5.3-11.838-11.838z" fill="#f96420" data-fill-palette-color="primary"></path><path d="M254.459 139.288c0-6.538 5.3-11.838 11.838-11.837 6.538 0 11.838 5.3 11.838 11.837 0 6.538-5.3 11.838-11.838 11.838-6.538 0-11.838-5.3-11.838-11.838z" fill="#f96420" data-fill-palette-color="primary"></path></g><g id="text-1"></g></svg></g></svg></g></svg></g><g></g></svg></g><defs></defs></svg><rect width="280" height="280" fill="none" stroke="none" visibility="hidden"></rect></g></svg></g></svg>